<mxfile host="app.diagrams.net" agent="Mozilla/5.0 (Windows NT 10.0; Win64; x64) AppleWebKit/537.36 (KHTML, like Gecko) Chrome/127.0.0.0 Safari/537.36" version="24.7.7">
  <diagram id="C5RBs43oDa-KdzZeNtuy" name="Page-1">
    <mxGraphModel dx="300" dy="168" grid="1" gridSize="10" guides="1" tooltips="1" connect="1" arrows="1" fold="1" page="1" pageScale="1" pageWidth="827" pageHeight="1169" math="0" shadow="0">
      <root>
        <mxCell id="WIyWlLk6GJQsqaUBKTNV-0" />
        <mxCell id="WIyWlLk6GJQsqaUBKTNV-1" parent="WIyWlLk6GJQsqaUBKTNV-0" />
        <mxCell id="B_ysbI1k3kU5B05oylcv-5" value="" style="edgeStyle=orthogonalEdgeStyle;rounded=0;orthogonalLoop=1;jettySize=auto;html=1;" parent="WIyWlLk6GJQsqaUBKTNV-1" source="WIyWlLk6GJQsqaUBKTNV-7" target="B_ysbI1k3kU5B05oylcv-4" edge="1">
          <mxGeometry relative="1" as="geometry" />
        </mxCell>
        <mxCell id="WIyWlLk6GJQsqaUBKTNV-7" value="Pengumpulan Data" style="rounded=1;whiteSpace=wrap;html=1;fontSize=12;glass=0;strokeWidth=1;shadow=0;" parent="WIyWlLk6GJQsqaUBKTNV-1" vertex="1">
          <mxGeometry x="70" y="280" width="90" height="40" as="geometry" />
        </mxCell>
        <mxCell id="B_ysbI1k3kU5B05oylcv-2" value="" style="edgeStyle=orthogonalEdgeStyle;rounded=0;orthogonalLoop=1;jettySize=auto;html=1;" parent="WIyWlLk6GJQsqaUBKTNV-1" source="B_ysbI1k3kU5B05oylcv-1" edge="1">
          <mxGeometry relative="1" as="geometry">
            <mxPoint x="115" y="275" as="targetPoint" />
          </mxGeometry>
        </mxCell>
        <mxCell id="B_ysbI1k3kU5B05oylcv-1" value="Mulai" style="ellipse;whiteSpace=wrap;html=1;" parent="WIyWlLk6GJQsqaUBKTNV-1" vertex="1">
          <mxGeometry x="82.5" y="205" width="65" height="40" as="geometry" />
        </mxCell>
        <mxCell id="B_ysbI1k3kU5B05oylcv-9" value="" style="edgeStyle=orthogonalEdgeStyle;rounded=0;orthogonalLoop=1;jettySize=auto;html=1;" parent="WIyWlLk6GJQsqaUBKTNV-1" source="B_ysbI1k3kU5B05oylcv-4" target="B_ysbI1k3kU5B05oylcv-7" edge="1">
          <mxGeometry relative="1" as="geometry" />
        </mxCell>
        <mxCell id="B_ysbI1k3kU5B05oylcv-4" value="Data Mentah" style="shape=parallelogram;perimeter=parallelogramPerimeter;whiteSpace=wrap;html=1;fixedSize=1;" parent="WIyWlLk6GJQsqaUBKTNV-1" vertex="1">
          <mxGeometry x="60" y="350" width="110" height="40" as="geometry" />
        </mxCell>
        <mxCell id="B_ysbI1k3kU5B05oylcv-11" value="" style="edgeStyle=orthogonalEdgeStyle;rounded=0;orthogonalLoop=1;jettySize=auto;html=1;" parent="WIyWlLk6GJQsqaUBKTNV-1" source="B_ysbI1k3kU5B05oylcv-7" target="B_ysbI1k3kU5B05oylcv-10" edge="1">
          <mxGeometry relative="1" as="geometry" />
        </mxCell>
        <mxCell id="B_ysbI1k3kU5B05oylcv-7" value="Data Preparation &amp;amp; Cleaning" style="rounded=1;whiteSpace=wrap;html=1;fontSize=12;glass=0;strokeWidth=1;shadow=0;" parent="WIyWlLk6GJQsqaUBKTNV-1" vertex="1">
          <mxGeometry x="65" y="425" width="100" height="45" as="geometry" />
        </mxCell>
        <mxCell id="B_ysbI1k3kU5B05oylcv-10" value="Data Bersih" style="shape=parallelogram;perimeter=parallelogramPerimeter;whiteSpace=wrap;html=1;fixedSize=1;" parent="WIyWlLk6GJQsqaUBKTNV-1" vertex="1">
          <mxGeometry x="60" y="515" width="110" height="40" as="geometry" />
        </mxCell>
        <mxCell id="B_ysbI1k3kU5B05oylcv-12" value="Exploratory Data Analysis" style="rounded=1;whiteSpace=wrap;html=1;fontSize=12;glass=0;strokeWidth=1;shadow=0;" parent="WIyWlLk6GJQsqaUBKTNV-1" vertex="1">
          <mxGeometry x="280" y="180" width="90" height="40" as="geometry" />
        </mxCell>
        <mxCell id="B_ysbI1k3kU5B05oylcv-14" value="Pra-Modeling" style="rounded=1;whiteSpace=wrap;html=1;fontSize=12;glass=0;strokeWidth=1;shadow=0;" parent="WIyWlLk6GJQsqaUBKTNV-1" vertex="1">
          <mxGeometry x="285" y="250" width="80" height="30" as="geometry" />
        </mxCell>
        <mxCell id="B_ysbI1k3kU5B05oylcv-23" value="" style="endArrow=none;html=1;rounded=0;" parent="WIyWlLk6GJQsqaUBKTNV-1" edge="1">
          <mxGeometry width="50" height="50" relative="1" as="geometry">
            <mxPoint x="200" y="540" as="sourcePoint" />
            <mxPoint x="200" y="200" as="targetPoint" />
          </mxGeometry>
        </mxCell>
        <mxCell id="B_ysbI1k3kU5B05oylcv-25" value="" style="endArrow=classic;html=1;rounded=0;entryX=0;entryY=0.5;entryDx=0;entryDy=0;" parent="WIyWlLk6GJQsqaUBKTNV-1" target="B_ysbI1k3kU5B05oylcv-12" edge="1">
          <mxGeometry width="50" height="50" relative="1" as="geometry">
            <mxPoint x="200" y="200" as="sourcePoint" />
            <mxPoint x="250" y="150" as="targetPoint" />
          </mxGeometry>
        </mxCell>
        <mxCell id="B_ysbI1k3kU5B05oylcv-36" value="" style="endArrow=classic;html=1;rounded=0;entryX=0.435;entryY=-0.067;entryDx=0;entryDy=0;entryPerimeter=0;" parent="WIyWlLk6GJQsqaUBKTNV-1" target="B_ysbI1k3kU5B05oylcv-14" edge="1">
          <mxGeometry width="50" height="50" relative="1" as="geometry">
            <mxPoint x="320" y="220" as="sourcePoint" />
            <mxPoint x="370" y="170" as="targetPoint" />
          </mxGeometry>
        </mxCell>
        <mxCell id="B_ysbI1k3kU5B05oylcv-43" value="" style="swimlane;startSize=0;" parent="WIyWlLk6GJQsqaUBKTNV-1" vertex="1">
          <mxGeometry x="260" y="310" width="130" height="170" as="geometry" />
        </mxCell>
        <mxCell id="B_ysbI1k3kU5B05oylcv-42" value="&lt;span style=&quot;line-height: 107%;&quot;&gt;&lt;font style=&quot;font-size: 12px;&quot;&gt;Decision Tree&lt;/font&gt;&lt;/span&gt;" style="rounded=1;whiteSpace=wrap;html=1;fontSize=12;glass=0;strokeWidth=1;shadow=0;" parent="B_ysbI1k3kU5B05oylcv-43" vertex="1">
          <mxGeometry x="18.129999999999995" y="50" width="93.75" height="30" as="geometry" />
        </mxCell>
        <mxCell id="B_ysbI1k3kU5B05oylcv-40" value="&lt;span style=&quot;line-height: 107%;&quot;&gt;&lt;font style=&quot;font-size: 12px;&quot;&gt;Random Forest&lt;/font&gt;&lt;/span&gt;" style="rounded=1;whiteSpace=wrap;html=1;fontSize=12;glass=0;strokeWidth=1;shadow=0;" parent="B_ysbI1k3kU5B05oylcv-43" vertex="1">
          <mxGeometry x="18.129999999999995" y="90" width="93.75" height="30" as="geometry" />
        </mxCell>
        <mxCell id="B_ysbI1k3kU5B05oylcv-41" value="XGBoost" style="rounded=1;whiteSpace=wrap;html=1;fontSize=12;glass=0;strokeWidth=1;shadow=0;" parent="B_ysbI1k3kU5B05oylcv-43" vertex="1">
          <mxGeometry x="18.129999999999995" y="130" width="93.75" height="30" as="geometry" />
        </mxCell>
        <mxCell id="B_ysbI1k3kU5B05oylcv-44" value="Modeling &amp;amp; Evaluation" style="text;html=1;align=center;verticalAlign=middle;whiteSpace=wrap;rounded=0;" parent="B_ysbI1k3kU5B05oylcv-43" vertex="1">
          <mxGeometry x="35" y="20" width="65" height="10" as="geometry" />
        </mxCell>
        <mxCell id="B_ysbI1k3kU5B05oylcv-47" value="" style="endArrow=none;html=1;rounded=0;entryX=0.886;entryY=0.623;entryDx=0;entryDy=0;entryPerimeter=0;" parent="WIyWlLk6GJQsqaUBKTNV-1" target="B_ysbI1k3kU5B05oylcv-10" edge="1">
          <mxGeometry width="50" height="50" relative="1" as="geometry">
            <mxPoint x="200" y="540" as="sourcePoint" />
            <mxPoint x="240" y="540" as="targetPoint" />
          </mxGeometry>
        </mxCell>
        <mxCell id="B_ysbI1k3kU5B05oylcv-50" value="Deployment" style="rounded=1;whiteSpace=wrap;html=1;fontSize=12;glass=0;strokeWidth=1;shadow=0;" parent="WIyWlLk6GJQsqaUBKTNV-1" vertex="1">
          <mxGeometry x="280" y="515" width="90" height="30" as="geometry" />
        </mxCell>
        <mxCell id="B_ysbI1k3kU5B05oylcv-51" value="Selesai" style="ellipse;whiteSpace=wrap;html=1;" parent="WIyWlLk6GJQsqaUBKTNV-1" vertex="1">
          <mxGeometry x="285" y="570" width="75" height="45" as="geometry" />
        </mxCell>
        <mxCell id="ZDP5iK-nuDDV53pRRyrD-5" value="" style="endArrow=classic;html=1;rounded=0;exitX=0.422;exitY=1.001;exitDx=0;exitDy=0;exitPerimeter=0;entryX=0.462;entryY=-0.011;entryDx=0;entryDy=0;entryPerimeter=0;" edge="1" parent="WIyWlLk6GJQsqaUBKTNV-1" source="B_ysbI1k3kU5B05oylcv-14" target="B_ysbI1k3kU5B05oylcv-43">
          <mxGeometry width="50" height="50" relative="1" as="geometry">
            <mxPoint x="320" y="350" as="sourcePoint" />
            <mxPoint x="370" y="300" as="targetPoint" />
          </mxGeometry>
        </mxCell>
        <mxCell id="ZDP5iK-nuDDV53pRRyrD-6" value="" style="endArrow=classic;html=1;rounded=0;exitX=0.465;exitY=0.999;exitDx=0;exitDy=0;exitPerimeter=0;entryX=0.446;entryY=-0.033;entryDx=0;entryDy=0;entryPerimeter=0;" edge="1" parent="WIyWlLk6GJQsqaUBKTNV-1" source="B_ysbI1k3kU5B05oylcv-43" target="B_ysbI1k3kU5B05oylcv-50">
          <mxGeometry width="50" height="50" relative="1" as="geometry">
            <mxPoint x="290" y="530" as="sourcePoint" />
            <mxPoint x="340" y="480" as="targetPoint" />
          </mxGeometry>
        </mxCell>
        <mxCell id="ZDP5iK-nuDDV53pRRyrD-9" value="" style="endArrow=classic;html=1;rounded=0;exitX=0.451;exitY=1.007;exitDx=0;exitDy=0;entryX=0.467;entryY=0;entryDx=0;entryDy=0;entryPerimeter=0;exitPerimeter=0;" edge="1" parent="WIyWlLk6GJQsqaUBKTNV-1" source="B_ysbI1k3kU5B05oylcv-50" target="B_ysbI1k3kU5B05oylcv-51">
          <mxGeometry width="50" height="50" relative="1" as="geometry">
            <mxPoint x="360" y="530" as="sourcePoint" />
            <mxPoint x="410" y="480" as="targetPoint" />
          </mxGeometry>
        </mxCell>
      </root>
    </mxGraphModel>
  </diagram>
</mxfile>
